<mxfile host="65bd71144e">
    <diagram id="hUVOVU6jRG6KGF_iUACn" name="Page-1">
        <mxGraphModel dx="1677" dy="1605" grid="1" gridSize="10" guides="1" tooltips="1" connect="1" arrows="1" fold="1" page="1" pageScale="1" pageWidth="850" pageHeight="1100" math="0" shadow="0">
            <root>
                <mxCell id="0"/>
                <mxCell id="1" parent="0"/>
                <mxCell id="122" value="" style="rounded=0;whiteSpace=wrap;html=1;fillColor=#FFFFFF;strokeColor=none;strokeWidth=0;" parent="1" vertex="1">
                    <mxGeometry x="-760" y="-480" width="670" height="300" as="geometry"/>
                </mxCell>
                <mxCell id="88" style="edgeStyle=none;html=1;exitX=0;exitY=0.5;exitDx=0;exitDy=0;entryX=0.5;entryY=0;entryDx=0;entryDy=0;strokeColor=#000000;" parent="1" source="84" target="85" edge="1">
                    <mxGeometry relative="1" as="geometry">
                        <Array as="points">
                            <mxPoint x="-650" y="-430"/>
                        </Array>
                    </mxGeometry>
                </mxCell>
                <mxCell id="124" style="edgeStyle=none;html=1;exitX=1;exitY=0.5;exitDx=0;exitDy=0;entryX=0.5;entryY=0;entryDx=0;entryDy=0;strokeColor=#000000;" parent="1" source="84" target="86" edge="1">
                    <mxGeometry relative="1" as="geometry">
                        <Array as="points">
                            <mxPoint x="-465" y="-430"/>
                        </Array>
                    </mxGeometry>
                </mxCell>
                <mxCell id="84" value="Project_Idle_0" style="rounded=1;whiteSpace=wrap;html=1;fillColor=none;strokeColor=#000000;fontColor=#000000;" parent="1" vertex="1">
                    <mxGeometry x="-618" y="-460" width="120" height="60" as="geometry"/>
                </mxCell>
                <mxCell id="113" style="edgeStyle=none;html=1;exitX=0.5;exitY=1;exitDx=0;exitDy=0;strokeColor=#000000;" parent="1" source="85" edge="1">
                    <mxGeometry relative="1" as="geometry">
                        <mxPoint x="-649.5714285714284" y="-270" as="targetPoint"/>
                    </mxGeometry>
                </mxCell>
                <mxCell id="85" value="Project_Playing_0" style="rounded=1;whiteSpace=wrap;html=1;fillColor=none;strokeColor=#000000;fontColor=#000000;" parent="1" vertex="1">
                    <mxGeometry x="-710" y="-370" width="120" height="60" as="geometry"/>
                </mxCell>
                <mxCell id="116" style="edgeStyle=none;html=1;exitX=0.5;exitY=1;exitDx=0;exitDy=0;entryX=0.5;entryY=0;entryDx=0;entryDy=0;strokeColor=#000000;" parent="1" source="86" target="118" edge="1">
                    <mxGeometry relative="1" as="geometry">
                        <mxPoint x="-453.25" y="-270" as="targetPoint"/>
                    </mxGeometry>
                </mxCell>
                <mxCell id="144" style="edgeStyle=none;html=1;exitX=0.75;exitY=1;exitDx=0;exitDy=0;entryX=0.5;entryY=0;entryDx=0;entryDy=0;fontColor=#000000;strokeColor=#000000;" parent="1" source="86" target="143" edge="1">
                    <mxGeometry relative="1" as="geometry">
                        <Array as="points">
                            <mxPoint x="-432" y="-290"/>
                            <mxPoint x="-320" y="-290"/>
                        </Array>
                    </mxGeometry>
                </mxCell>
                <mxCell id="146" style="edgeStyle=none;html=1;exitX=1;exitY=0.5;exitDx=0;exitDy=0;entryX=0.5;entryY=0;entryDx=0;entryDy=0;strokeColor=#000000;" edge="1" parent="1" source="86" target="145">
                    <mxGeometry relative="1" as="geometry">
                        <Array as="points">
                            <mxPoint x="-170" y="-340"/>
                        </Array>
                    </mxGeometry>
                </mxCell>
                <mxCell id="86" value="Time_Today_Edition_0" style="rounded=1;whiteSpace=wrap;html=1;fillColor=none;strokeColor=#000000;fontColor=#000000;" parent="1" vertex="1">
                    <mxGeometry x="-530" y="-370" width="130" height="60" as="geometry"/>
                </mxCell>
                <mxCell id="117" value="&lt;b&gt;&lt;font&gt;Project_Idle_1&lt;/font&gt;&lt;/b&gt;" style="rounded=1;whiteSpace=wrap;html=1;arcSize=10;fillColor=#009999;fontColor=#1A1A1A;strokeColor=#000000;" parent="1" vertex="1">
                    <mxGeometry x="-710" y="-270" width="120" height="60" as="geometry"/>
                </mxCell>
                <mxCell id="118" value="&lt;b&gt;&lt;font&gt;Project_Idle_3&lt;/font&gt;&lt;/b&gt;" style="rounded=1;whiteSpace=wrap;html=1;arcSize=10;fillColor=#FF9933;fontColor=#1A1A1A;strokeColor=#000000;" parent="1" vertex="1">
                    <mxGeometry x="-525" y="-270" width="120" height="60" as="geometry"/>
                </mxCell>
                <mxCell id="143" value="Time_Today_Edition_1" style="rounded=1;whiteSpace=wrap;html=1;fillColor=#7DD16D;strokeColor=#000000;fontColor=#1A1A1A;fontStyle=1" parent="1" vertex="1">
                    <mxGeometry x="-390" y="-270" width="140" height="60" as="geometry"/>
                </mxCell>
                <mxCell id="145" value="&lt;b&gt;&lt;font&gt;Project_Playing_1&lt;/font&gt;&lt;/b&gt;" style="rounded=1;whiteSpace=wrap;html=1;arcSize=10;fillColor=#FF99CC;fontColor=#1A1A1A;strokeColor=#000000;" vertex="1" parent="1">
                    <mxGeometry x="-230" y="-270" width="120" height="60" as="geometry"/>
                </mxCell>
            </root>
        </mxGraphModel>
    </diagram>
</mxfile>